<svg width="109" height="97" viewBox="0 0 109 97" fill="none" xmlns="http://www.w3.org/2000/svg">
<g filter="url(#filter0_dd_2_29537)">
<path d="M24 38.5C24 23.8645 35.8645 12 50.5 12V12C65.1355 12 77 23.8645 77 38.5V38.5C77 53.1355 65.1355 65 50.5 65V65C35.8645 65 24 53.1355 24 38.5V38.5Z" fill="#FF3D71"/>
<path fill-rule="evenodd" clip-rule="evenodd" d="M61.2916 36.9583H52.0416V27.7083C52.0416 26.8558 51.351 26.1666 50.5 26.1666C49.649 26.1666 48.9583 26.8558 48.9583 27.7083V36.9583H39.7083C38.8573 36.9583 38.1666 37.6474 38.1666 38.5C38.1666 39.3525 38.8573 40.0416 39.7083 40.0416H48.9583V49.2916C48.9583 50.1442 49.649 50.8333 50.5 50.8333C51.351 50.8333 52.0416 50.1442 52.0416 49.2916V40.0416H61.2916C62.1426 40.0416 62.8333 39.3525 62.8333 38.5C62.8333 37.6474 62.1426 36.9583 61.2916 36.9583Z" fill="white"/>
<path d="M50.5 61C38.0736 61 28 50.9264 28 38.5H20C20 55.3447 33.6553 69 50.5 69V61ZM73 38.5C73 50.9264 62.9264 61 50.5 61V69C67.3447 69 81 55.3447 81 38.5H73ZM50.5 16C62.9264 16 73 26.0736 73 38.5H81C81 21.6553 67.3447 8 50.5 8V16ZM50.5 8C33.6553 8 20 21.6553 20 38.5H28C28 26.0736 38.0736 16 50.5 16V8Z" fill="#DB2C66"/>
</g>
<defs>
<filter id="filter0_dd_2_29537" x="-8" y="0" width="117" height="117" filterUnits="userSpaceOnUse" color-interpolation-filters="sRGB">
<feFlood flood-opacity="0" result="BackgroundImageFix"/>
<feColorMatrix in="SourceAlpha" type="matrix" values="0 0 0 0 0 0 0 0 0 0 0 0 0 0 0 0 0 0 127 0" result="hardAlpha"/>
<feOffset dy="20"/>
<feGaussianBlur stdDeviation="16"/>
<feColorMatrix type="matrix" values="0 0 0 0 0.0352941 0 0 0 0 0.117647 0 0 0 0 0.258824 0 0 0 0.25 0"/>
<feBlend mode="normal" in2="BackgroundImageFix" result="effect1_dropShadow_2_29537"/>
<feColorMatrix in="SourceAlpha" type="matrix" values="0 0 0 0 0 0 0 0 0 0 0 0 0 0 0 0 0 0 127 0" result="hardAlpha"/>
<feOffset/>
<feGaussianBlur stdDeviation="0.5"/>
<feColorMatrix type="matrix" values="0 0 0 0 0.0352941 0 0 0 0 0.117647 0 0 0 0 0.258824 0 0 0 0.31 0"/>
<feBlend mode="normal" in2="effect1_dropShadow_2_29537" result="effect2_dropShadow_2_29537"/>
<feBlend mode="normal" in="SourceGraphic" in2="effect2_dropShadow_2_29537" result="shape"/>
</filter>
</defs>
</svg>
